<svg xmlns="http://www.w3.org/2000/svg" version="1.1" xmlns:xlink="http://www.w3.org/1999/xlink" xmlns:svgjs="http://svgjs.dev/svgjs" width="1920" height="1080" preserveAspectRatio="none" viewBox="0 0 1920 1080"><g mask="url(&quot;#SvgjsMask1009&quot;)" fill="none"><rect width="1920" height="1080" x="0" y="0" fill="rgba(250, 247, 245, 1)"></rect><path d="M2035.3750790862205 41.46957613399184L1906.8586579843318-74.24712918483303 1791.1419526655068 54.2692919170557 1919.6583737673957 169.98599723588057z" fill="rgba(245, 230, 220, 1)" class="triangle-float3"></path><path d="M991.3412938933286 79.57777945790295L1172.9317376965437 267.62018871081483 1360.9741469494556 86.02974490759982 1179.3837031462406-102.01266434531206z" fill="rgba(245, 230, 220, 1)" class="triangle-float1"></path><path d="M1323.254,557.151C1385.374,558.629,1449.192,536.886,1480.749,483.357C1512.723,429.121,1505.066,360.033,1470.471,307.431C1438.993,259.568,1380.508,245.821,1323.254,243.883C1261.191,241.782,1190.591,244.17,1157.702,296.845C1123.552,351.54,1143.622,421.749,1178.226,476.158C1210.074,526.234,1263.925,555.739,1323.254,557.151" fill="rgba(245, 230, 220, 1)" class="triangle-float1"></path><path d="M72.02478952693033 1028.9493704345355L228.2917065192511 927.6800492505254 84.56693028755998 851.2602301646996z" fill="rgba(245, 230, 220, 1)" class="triangle-float2"></path><path d="M2104.090081858982 682.226581482079L1897.3822361548923 468.17434115715037 1683.3299958299638 674.88218686124 1890.0378415340533 888.9344271861687z" fill="rgba(245, 230, 220, 1)" class="triangle-float1"></path><path d="M1413.9169093178225 49.164593732860396L1584.872589439276 148.08325387189046 1587.8858523241443-24.546461185601004z" fill="rgba(245, 230, 220, 1)" class="triangle-float1"></path></g><defs><mask id="SvgjsMask1009"><rect width="1920" height="1080" fill="#ffffff"></rect></mask><style>
                @keyframes float1 {
                    0%{transform: translate(0, 0)}
                    50%{transform: translate(-10px, 0)}
                    100%{transform: translate(0, 0)}
                }

                .triangle-float1 {
                    animation: float1 5s infinite;
                }

                @keyframes float2 {
                    0%{transform: translate(0, 0)}
                    50%{transform: translate(-5px, -5px)}
                    100%{transform: translate(0, 0)}
                }

                .triangle-float2 {
                    animation: float2 4s infinite;
                }

                @keyframes float3 {
                    0%{transform: translate(0, 0)}
                    50%{transform: translate(0, -10px)}
                    100%{transform: translate(0, 0)}
                }

                .triangle-float3 {
                    animation: float3 6s infinite;
                }
            </style></defs></svg>