<svg xmlns="http://www.w3.org/2000/svg" version="1.1" xmlns:xlink="http://www.w3.org/1999/xlink" xmlns:svgjs="http://svgjs.dev/svgjs" width="1920" height="1080" preserveAspectRatio="none" viewBox="0 0 1920 1080"><g mask="url(&quot;#SvgjsMask1017&quot;)" fill="none"><rect width="1920" height="1080" x="0" y="0" fill="rgba(26, 30, 92, 1)"></rect><path d="M-84.31973948238706 398.41041347035184L82.36808380415579 449.37199527460734 133.3296656084113 282.68417198806446-33.35815767813156 231.722590183809z" fill="rgba(52, 58, 137, 1)" class="triangle-float3"></path><path d="M206.8324230190016 56.106790474098446L296.74279790071364 205.742782640175 356.46841518507813-33.80358440761357z" fill="rgba(52, 58, 137, 1)" class="triangle-float3"></path><path d="M1793.094,803.819C1860.43,800.365,1928.594,779.165,1962.668,720.983C1997.059,662.26,1984.093,591.29,1953.017,530.748C1918.328,463.167,1869.055,391.244,1793.094,390.624C1716.503,389.999,1667.009,461.841,1628.585,528.1C1589.983,594.666,1551.018,673.997,1590.445,740.078C1629.333,805.254,1717.298,807.707,1793.094,803.819" fill="rgba(52, 58, 137, 1)" class="triangle-float2"></path><path d="M1145.872,1046.097C1224.171,1046.915,1310.1,1039.185,1352.658,973.457C1398.128,903.23,1387.45,811.186,1344.435,739.429C1302.655,669.733,1227.126,629.363,1145.872,628.501C1063.005,627.622,981.738,663.616,939.874,735.136C897.612,807.336,900.235,899.467,946.438,969.212C988.61,1032.873,1069.514,1045.299,1145.872,1046.097" fill="rgba(52, 58, 137, 1)" class="triangle-float3"></path><path d="M1181.8558001338615 491.56927905441313L1231.5519493098725 318.2582106147198 1058.2408808701791 268.56206143870884 1008.5447316941681 441.87312987840215z" fill="rgba(52, 58, 137, 1)" class="triangle-float1"></path><path d="M295.0035524734916 111.50589067074554L33.28327384809063 106.93754621430799 28.714929391653072 368.65782483970895 290.43520801705404 373.2261692961465z" fill="rgba(52, 58, 137, 1)" class="triangle-float3"></path></g><defs><mask id="SvgjsMask1017"><rect width="1920" height="1080" fill="#ffffff"></rect></mask><style>
                @keyframes float1 {
                    0%{transform: translate(0, 0)}
                    50%{transform: translate(-10px, 0)}
                    100%{transform: translate(0, 0)}
                }

                .triangle-float1 {
                    animation: float1 5s infinite;
                }

                @keyframes float2 {
                    0%{transform: translate(0, 0)}
                    50%{transform: translate(-5px, -5px)}
                    100%{transform: translate(0, 0)}
                }

                .triangle-float2 {
                    animation: float2 4s infinite;
                }

                @keyframes float3 {
                    0%{transform: translate(0, 0)}
                    50%{transform: translate(0, -10px)}
                    100%{transform: translate(0, 0)}
                }

                .triangle-float3 {
                    animation: float3 6s infinite;
                }
            </style></defs></svg>